<svg id="Layer_1" data-name="Layer 1" xmlns="http://www.w3.org/2000/svg" viewBox="0 0 1124 501.63"><defs><style>.cls-1{fill:#031926;fill-rule:evenodd;}</style></defs><path class="cls-1" d="M919,248.63h0c.31-34.2,25.55-57,57.67-57,31.79,0,57,22.59,57,57.62,0,34.26-25,57.07-57,57.07A61.09,61.09,0,0,1,949,300v93.84a152.31,152.31,0,0,0,27.67,2.53c77.32,0,147-58.8,147-147.07,0-88.81-69.7-147.62-147-147.62-77.14,0-147.34,58.53-147.67,147h0v253a90,90,0,0,0,90-90Zm-154.69-104a144.26,144.26,0,0,0-205.55,0l-136.21,138a46.82,46.82,0,0,1-66.78.11,48.44,48.44,0,0,1,.11-67.77,46.82,46.82,0,0,1,66.78,0l12.07,12.29,69.33-70.21L492,144.88a144.15,144.15,0,0,0-205.54-.11c-56.59,57.36-56.59,150.72,0,208.08a144.25,144.25,0,0,0,205.54,0l136.22-138a46.82,46.82,0,0,1,66.78,0c18.38,18.6,18.49,49.06,0,67.66a46.82,46.82,0,0,1-66.78,0l-12.07-12.29L546.8,340.45l12.08,12.18a144.25,144.25,0,0,0,205.54,0C820.9,295.38,820.9,202,764.31,144.66ZM244.64,353.27a147.46,147.46,0,0,1-109.8,43.07A147.64,147.64,0,0,1,144,101.67,147.45,147.45,0,0,1,244.64,144.8l-60.28,60.28a57.45,57.45,0,1,0,.24,88.15Z"/></svg>