<svg width="1124" height="400" viewBox="0 0 1124 400" fill="none" xmlns="http://www.w3.org/2000/svg">
<path fill-rule="evenodd" clip-rule="evenodd" d="M919 147H919.003C919.306 112.802 944.554 90 976.667 90C1008.46 90 1033.69 112.59 1033.69 147.622C1033.69 181.879 1008.69 204.691 976.667 204.691C966.551 204.691 957.151 202.439 949 198.321V292.157C958.045 293.829 967.305 294.691 976.667 294.691C1053.99 294.691 1123.69 235.886 1123.69 147.622C1123.69 58.8054 1053.99 0 976.667 0C899.529 0 829.329 58.5307 829.001 147H829V400C878.706 400 919 359.706 919 310V147ZM764.306 43.0243C707.604 -14.3414 615.465 -14.3414 558.764 43.0243L422.548 181.012C404.054 199.728 374.153 199.728 355.769 181.123C337.385 162.518 337.385 132.063 355.88 113.347C374.263 94.742 404.164 94.6312 422.659 113.347L434.73 125.64L504.056 55.4277L491.985 43.2458C435.284 -14.2307 343.033 -14.2307 286.443 43.135C229.852 100.501 229.852 193.858 286.443 251.224C343.144 308.59 435.284 308.59 491.985 251.224L628.201 113.236C646.584 94.6312 676.485 94.5205 694.98 113.236C713.363 131.841 713.474 162.296 694.98 180.901C676.596 199.506 646.695 199.617 628.201 180.901L616.129 168.609L546.803 238.821L558.875 251.003C615.576 308.368 707.715 308.368 764.416 251.003C820.896 193.748 820.896 100.39 764.306 43.0243ZM244.636 251.637C224.021 272.252 197.756 286.291 169.162 291.979C157.809 294.237 146.291 295.138 134.842 294.706C59.2962 288.226 0 224.851 0 147.626C0 67.3072 64.1427 1.96972 143.998 0.0437471C152.413 0.248877 160.832 1.17538 169.162 2.83239C197.756 8.52006 224.021 22.5591 244.636 43.1741L184.362 103.449C174.403 95.1582 161.597 90.1716 147.626 90.1716C115.895 90.1716 90.1716 115.895 90.1716 147.626C90.1716 179.357 115.895 205.08 147.626 205.08C161.709 205.08 174.609 200.013 184.602 191.602L244.636 251.637Z" fill="#031926"/>
</svg>
